<svg xmlns="http://www.w3.org/2000/svg" width="22.404" height="20.987" viewBox="0 0 22.404 20.987">
  <g id="Group_719" data-name="Group 719" transform="translate(-0.396 -0.84)">
    <path id="Fill_1" data-name="Fill 1" d="M6.206,13.548A7.724,7.724,0,0,1,0,10.391l.751-.564a6.706,6.706,0,0,0,5.455,2.779H6.22a6.62,6.62,0,0,0,3.011-.711.465.465,0,0,1,.526.08c.743.693,2.57.631,3.783.472a4.907,4.907,0,0,1-1.177-3.766.479.479,0,0,1,.032-.1A6.906,6.906,0,0,0,13,5.712,6.873,6.873,0,0,0,10.845.687L11.483,0a7.916,7.916,0,0,1,2.454,5.711,7.854,7.854,0,0,1-.666,3.2,4.36,4.36,0,0,0,1.51,3.527.475.475,0,0,1,.118.467.47.47,0,0,1-.351.327c-.379.081-3.584.718-5.169-.366a7.537,7.537,0,0,1-3.159.68Z" transform="translate(7.881 8.28)" fill="#868daa"/>
    <path id="Fill_4" data-name="Fill 4" d="M9.12,16.427a7.947,7.947,0,0,1-3.324-.72,4.964,4.964,0,0,1-2.815.657A14.19,14.19,0,0,1,.371,16.1a.466.466,0,0,1-.351-.327A.471.471,0,0,1,.137,15.3,4.6,4.6,0,0,0,1.723,11.57,8.234,8.234,0,0,1,9.12,0a8.168,8.168,0,0,1,8.1,8.213A8.168,8.168,0,0,1,9.12,16.427ZM5.734,14.684a.473.473,0,0,1,.208.049,7.017,7.017,0,0,0,3.178.752,7.229,7.229,0,0,0,7.169-7.271A7.229,7.229,0,0,0,9.12.941,7.294,7.294,0,0,0,2.6,11.237a.486.486,0,0,1,.032.1A5.161,5.161,0,0,1,1.382,15.31a12.391,12.391,0,0,0,1.6.112,3.688,3.688,0,0,0,2.436-.612A.463.463,0,0,1,5.734,14.684Z" transform="translate(0.396 0.84)" fill="#868daa"/>
  </g>
</svg>
