<svg height="17.897" viewBox="0 0 22.966 17.897" width="22.966" xmlns="http://www.w3.org/2000/svg">
    <g fill="inherit" stroke="none">
        <path d="m11.483 9.332a.546.546 0 0 1 -.189-.034l-10.961-4.154a.509.509 0 0 1 0-.955l10.961-4.155a.534.534 0 0 1 .377 0l10.961 4.155a.508.508 0 0 1 0 .955l-10.961 4.156a.537.537 0 0 1 -.188.032zm0-8.273-9.515 3.607 9.515 3.607 9.517-3.607z"/>
        <path d="m11.483 7.255a.531.531 0 0 1 -.188-.034l-10.961-4.155a.508.508 0 0 1 0-.954l5.48-2.077a.526.526 0 0 1 .675.292.508.508 0 0 1 -.3.662l-4.223 1.6 9.517 3.611 9.517-3.611-4.225-1.601a.508.508 0 0 1 -.3-.662.526.526 0 0 1 .675-.292l5.481 2.077a.508.508 0 0 1 0 .954l-10.96 4.156a.531.531 0 0 1 -.188.034"
              transform="translate(0 6.552)"/>
        <path d="m11.483 7.159a.531.531 0 0 1 -.188-.034l-10.961-4.155a.508.508 0 0 1 0-.954l5.219-1.981a.525.525 0 0 1 .675.292.509.509 0 0 1 -.3.662l-3.962 1.5 9.517 3.611 9.517-3.607-3.964-1.504a.509.509 0 0 1 -.3-.662.526.526 0 0 1 .675-.292l5.22 1.981a.508.508 0 0 1 0 .954l-10.96 4.155a.531.531 0 0 1 -.188.034"
              transform="translate(0 10.738)"/>
    </g>
</svg>