<svg xmlns="http://www.w3.org/2000/svg" width="20.667" height="20.6" viewBox="0 0 20.667 20.6"><defs><style>.a{fill:#868daa;stroke:#fafafa;stroke-width:0.6px;}</style></defs><g transform="translate(0.3 0.3)"><g transform="translate(9.234 0)"><g transform="translate(0 0)"><path class="a" d="M.833,19.183h7.5a.834.834,0,0,0,.833-.833v-15a.834.834,0,0,0-.833-.833H.833A.833.833,0,0,1,.833.85h7.5a2.5,2.5,0,0,1,2.5,2.5v15a2.5,2.5,0,0,1-2.5,2.5H.833a.833.833,0,1,1,0-1.667Z" transform="translate(0 -0.85)"/></g></g><g transform="translate(0 4.167)"><path class="a" d="M13.151,6.427l-5.067,5a.833.833,0,0,1-1.17-1.187l3.621-3.573H.833A.833.833,0,0,1,.833,5h9.7L6.915,1.427A.833.833,0,1,1,8.085.24l5.067,5a.833.833,0,0,1,0,1.187Z"/></g></g></svg>