<svg id="meetings_icon" data-name="meetings icon" xmlns="http://www.w3.org/2000/svg" width="20.161" height="20.313"
     viewBox="0 0 20.161 20.313">
    <path id="Fill_1" data-name="Fill 1"
          d="M5.54,12.7a4.068,4.068,0,0,1-3.032-1.611A8.182,8.182,0,0,1,1,8.588L.946,8.555.928,8.545A.838.838,0,0,1,.6,8.257,2.772,2.772,0,0,1,.136,5.8a1.247,1.247,0,0,1,.515-.563A8.786,8.786,0,0,1,.9,3.1,4.412,4.412,0,0,1,1.816,1.54,4.781,4.781,0,0,1,5.54,0a4.615,4.615,0,0,1,4.636,3.1,8.669,8.669,0,0,1,.252,2.134,1.249,1.249,0,0,1,.515.563,2.779,2.779,0,0,1-.459,2.462.839.839,0,0,1-.333.284l-.043.028-.026.017A8.189,8.189,0,0,1,8.57,11.094,4.24,4.24,0,0,1,5.54,12.7ZM5.54.882A3.959,3.959,0,0,0,2.493,2.1a3.345,3.345,0,0,0-.737,1.234A8,8,0,0,0,1.539,5.5V5.5a.442.442,0,0,1-.361.458.4.4,0,0,0-.248.222c-.062.144-.149.586.392,1.57l.025.016.046.028c.2.127.353.219.409.412.221.765,1.717,3.614,3.737,3.614S9.054,8.975,9.276,8.21c.055-.194.2-.285.406-.412l.047-.029.027-.017c.542-.987.455-1.427.392-1.57a.4.4,0,0,0-.258-.224.454.454,0,0,1-.35-.455V5.5A8.1,8.1,0,0,0,9.322,3.33,3.681,3.681,0,0,0,5.54.882Z"
          transform="translate(4.373 0)" fill="inherit" stroke="none"/>
    <path id="Fill_4" data-name="Fill 4"
          d="M1.458,1.695a.443.443,0,0,1-.2-.049,2.711,2.711,0,0,1-1.206-1A.441.441,0,0,1,.828.228a2.191,2.191,0,0,0,.834.634.441.441,0,0,1-.2.832"
          transform="translate(11.639 11.148)" fill="inherit" stroke="none"/>
    <path id="Fill_6" data-name="Fill 6"
          d="M10.142,9.166a61.567,61.567,0,0,1-9.78-.853A.442.442,0,0,1,0,7.858,6.434,6.434,0,0,1,5,1.451,6.473,6.473,0,0,0,7.433.128a.441.441,0,1,1,.622.627A7.313,7.313,0,0,1,5.263,2.292C3.271,2.92,1.213,4.036.909,7.511a59.565,59.565,0,0,0,10.411.756.441.441,0,1,1,.025.881q-.6.017-1.2.017"
          transform="translate(0 11.148)" fill="inherit" stroke="none"/>
    <path id="Fill_9" data-name="Fill 9"
          d="M6.18,6.614H.883A.883.883,0,0,1,0,5.732V.882A.883.883,0,0,1,.883,0h5.3a.883.883,0,0,1,.883.882v4.85A.883.883,0,0,1,6.18,6.614ZM.883.882v4.85h5.3V.882Z"
          transform="translate(13.098 13.683)" fill="inherit" stroke="none"/>
    <path id="Fill_12" data-name="Fill 12" d="M5.739.882H.441A.441.441,0,1,1,.441,0h5.3a.441.441,0,1,1,0,.882"
          transform="translate(13.54 15.888)" fill="inherit" stroke="none"/>
    <path id="Fill_14" data-name="Fill 14"
          d="M.441,2.645A.441.441,0,0,1,0,2.2V.441a.441.441,0,0,1,.883,0V2.2a.441.441,0,0,1-.441.441"
          transform="translate(14.864 12.802)" fill="inherit" stroke="none"/>
    <path id="Fill_16" data-name="Fill 16"
          d="M.441,2.645A.441.441,0,0,1,0,2.2V.441a.441.441,0,0,1,.883,0V2.2a.441.441,0,0,1-.441.441"
          transform="translate(17.513 12.802)" fill="inherit" stroke="none"/>
</svg>
