<svg xmlns="http://www.w3.org/2000/svg" width="15.977" height="16" viewBox="0 0 15.977 16"><defs><style>.a{fill:#4e5983;}</style></defs><g transform="translate(0 0)"><path class="a" d="M13.028,36.426a1.58,1.58,0,0,0-1.146-.525,1.634,1.634,0,0,0-1.159.522L9.651,37.49c-.088-.047-.176-.092-.261-.136-.122-.061-.237-.119-.336-.18a11.643,11.643,0,0,1-2.79-2.542,6.868,6.868,0,0,1-.915-1.444c.278-.254.536-.519.787-.773.095-.095.19-.193.285-.288a1.555,1.555,0,0,0,0-2.346l-.926-.925c-.105-.105-.214-.214-.315-.322-.2-.21-.417-.427-.637-.63a1.6,1.6,0,0,0-1.136-.5,1.661,1.661,0,0,0-1.153.5l-.007.007L1.094,29.074A2.48,2.48,0,0,0,.358,30.65a5.941,5.941,0,0,0,.434,2.515A14.594,14.594,0,0,0,3.386,37.49,15.954,15.954,0,0,0,8.7,41.649a8.278,8.278,0,0,0,2.983.881c.071,0,.146.007.214.007a2.555,2.555,0,0,0,1.956-.841c0-.007.01-.01.014-.017a7.7,7.7,0,0,1,.593-.614c.146-.139.295-.285.441-.437a1.691,1.691,0,0,0,.512-1.173,1.629,1.629,0,0,0-.522-1.163ZM14.242,40s0,0,0,0c-.132.142-.268.271-.414.414a8.915,8.915,0,0,0-.654.678,1.635,1.635,0,0,1-1.275.539c-.051,0-.105,0-.156,0A7.354,7.354,0,0,1,9.1,40.829a15.059,15.059,0,0,1-5-3.918,13.761,13.761,0,0,1-2.441-4.064,4.839,4.839,0,0,1-.38-2.122,1.556,1.556,0,0,1,.468-1.007L2.9,28.562a.771.771,0,0,1,.515-.241.725.725,0,0,1,.495.237l.01.01c.207.193.4.393.61.607.105.108.214.217.322.329l.926.925a.647.647,0,0,1,0,1.051c-.1.1-.193.2-.292.292-.285.292-.556.563-.851.827-.007.007-.014.01-.017.017a.691.691,0,0,0-.176.769l.01.031a7.429,7.429,0,0,0,1.1,1.786l0,0a12.443,12.443,0,0,0,3.011,2.739,4.631,4.631,0,0,0,.417.227c.122.061.237.119.336.18.014.007.027.017.041.024a.735.735,0,0,0,.336.085.725.725,0,0,0,.515-.234l1.159-1.159a.767.767,0,0,1,.512-.254.691.691,0,0,1,.488.247l.007.007,1.868,1.868A.67.67,0,0,1,14.242,40Z" transform="translate(-0.344 -26.537)"/><path class="a" d="M245.3,86.774a4.08,4.08,0,0,1,3.322,3.322.425.425,0,0,0,.422.355.568.568,0,0,0,.073-.006.428.428,0,0,0,.352-.495,4.933,4.933,0,0,0-4.02-4.02.43.43,0,0,0-.495.349A.423.423,0,0,0,245.3,86.774Z" transform="translate(-236.465 -82.947)"/><path class="a" d="M255.891,6.626A8.123,8.123,0,0,0,249.272.007a.427.427,0,1,0-.139.843,7.256,7.256,0,0,1,5.915,5.915.425.425,0,0,0,.422.355.566.566,0,0,0,.073-.006A.42.42,0,0,0,255.891,6.626Z" transform="translate(-239.921 0)"/></g></svg>