<svg xmlns="http://www.w3.org/2000/svg"
     width="21.246"
     height="21.25"
     viewBox="0 0 21.246 21.25">
      <path id="Path_468"
            data-name="Path 468"
            d="M18.2,59.878H10.019V51.7a.593.593,0,0,0-.6-.6A9.374,9.374,0,1,0,18.8,60.474.6.6,0,0,0,18.2,59.878ZM9.423,68.657a8.183,8.183,0,0,1-.6-16.344v8.161a.593.593,0,0,0,.6.6h8.161A8.191,8.191,0,0,1,9.423,68.657Z"
            transform="translate(-0.05 -48.847)"
            fill="inherit" stroke="none"
            stroke-width="0.25"/>
      <path id="Path_469" data-name="Path 469" d="M260.119,9.343A9.372,9.372,0,0,0,250.745,0a.593.593,0,0,0-.6.6V9.374a.593.593,0,0,0,.6.6h8.778a.593.593,0,0,0,.6-.6Zm-8.778-.56V1.217a8.189,8.189,0,0,1,7.566,7.566H251.34Z" transform="translate(-239.123)"
            fill="inherit" stroke="none"
            stroke-width="0.25"/>
</svg>
