<svg xmlns="http://www.w3.org/2000/svg" width="14.971" height="14.987" viewBox="0 0 14.971 14.987">
  <path id="push-pin" d="M.033,6.021a.283.283,0,0,1,.172-.206,6.592,6.592,0,0,1,2.452-.467A7.092,7.092,0,0,1,5.4,5.9L9.6,2.318A3.161,3.161,0,0,1,10.183.1a.284.284,0,0,1,.2-.105A.293.293,0,0,1,10.6.082l4.312,4.312a.283.283,0,0,1-.024.422A3.045,3.045,0,0,1,13,5.408c-.116,0-.216-.005-.292-.011l-3.6,4.228A7.411,7.411,0,0,1,9.2,14.808a.283.283,0,0,1-.463.1L4.617,10.785.78,14.621a.283.283,0,0,1-.4-.4l3.836-3.836L.11,6.278A.283.283,0,0,1,.033,6.021Z" transform="translate(-0.027 0)" fill="#fff"/>
</svg>
