<svg xmlns="http://www.w3.org/2000/svg" width="18.72" height="18.72" viewBox="0 0 18.72 18.72"><defs><sgyle>.a{fill:#868daa;stroke:#fafafa;stroke-width:0.72px;}</sgyle></defs><g transform="translate(0.36 0.36)"><g transform="translate(11.479 0)"><path class="a" d="M21.076,6.522a.75.75,0,0,1-.75-.75V2.217A.718.718,0,0,0,19.61,1.5H16.055a.75.75,0,1,1,0-1.5H19.61a2.219,2.219,0,0,1,2.216,2.217V5.772A.75.75,0,0,1,21.076,6.522Z" transform="translate(-15.305 0)"/></g><g transform="translate(0 0)"><path class="a" d="M.75,6.522A.75.75,0,0,1,0,5.772V2.217A2.219,2.219,0,0,1,2.216,0H5.771a.75.75,0,0,1,0,1.5H2.216a.718.718,0,0,0-.716.717V5.772A.75.75,0,0,1,.75,6.522Z" transform="translate(0 0)"/></g><g transform="translate(11.479 11.478)"><path class="a" d="M19.61,21.826H16.055a.75.75,0,1,1,0-1.5H19.61a.718.718,0,0,0,.716-.717V16.054a.75.75,0,1,1,1.5,0v3.555A2.219,2.219,0,0,1,19.61,21.826Z" transform="translate(-15.305 -15.304)"/></g><g transform="translate(0 11.478)"><path class="a" d="M5.771,21.826H2.216A2.219,2.219,0,0,1,0,19.609V16.054a.75.75,0,1,1,1.5,0v3.555a.718.718,0,0,0,.716.717H5.771a.75.75,0,0,1,0,1.5Z" transform="translate(0 -15.304)"/></g><g transform="translate(2.625 2.625)"><path class="a" d="M7.983,9.244H4.25a.75.75,0,0,1-.75-.75V4.25a.75.75,0,0,1,.75-.75H7.983a.75.75,0,0,1,.75.75V8.494A.75.75,0,0,1,7.983,9.244ZM5,7.744H7.233V5H5Z" transform="translate(-3.5 -3.5)"/></g><g transform="translate(10.312 10.125)"><path class="a" d="M18.063,18.75H14.5a.75.75,0,0,1-.75-.75V15.614a.75.75,0,1,1,1.5,0V17.25h2.063V15h-.887a.75.75,0,0,1,0-1.5h1.637a.75.75,0,0,1,.75.75V18A.75.75,0,0,1,18.063,18.75Z" transform="translate(-13.75 -13.5)"/></g><g transform="translate(10.807 2.625)"><path class="a" d="M18.227,8.068H15.159a.75.75,0,0,1-.75-.75V4.25a.75.75,0,0,1,.75-.75h3.068a.75.75,0,0,1,.75.75V7.318A.75.75,0,0,1,18.227,8.068Zm-2.318-1.5h1.568V5H15.909Z" transform="translate(-14.409 -3.5)"/></g><g transform="translate(2.625 3.307)"><path class="a" d="M10.234,11.7H4.25a.75.75,0,1,1,0-1.5H9.483V5.159a.75.75,0,0,1,1.5,0v5.8A.75.75,0,0,1,10.234,11.7Z" transform="translate(-3.5 -4.409)"/></g><g transform="translate(10.688 7.892)"><path class="a" d="M15,13.045a.75.75,0,0,1-.75-.75V11.273a.75.75,0,0,1,.75-.75h3.375a.75.75,0,1,1,0,1.5H15.75V12.3A.75.75,0,0,1,15,13.045Z" transform="translate(-14.25 -10.523)"/></g><g transform="translate(8.266 11.197)"><path class="a" d="M11.772,18.133a.75.75,0,0,1-.75-.75v-1.7a.75.75,0,1,1,1.5,0v1.7A.75.75,0,0,1,11.772,18.133Z" transform="translate(-11.022 -14.929)"/></g><g transform="translate(2.625 11.148)"><path class="a" d="M7.812,19.091H4.25a.75.75,0,0,1-.75-.75V15.614a.75.75,0,0,1,.75-.75H7.812a.75.75,0,0,1,.75.75v2.727A.75.75,0,0,1,7.812,19.091ZM5,17.591H7.063V16.364H5Z" transform="translate(-3.5 -14.864)"/></g></g></svg>