<svg id="sessions_icon" data-name="sessions icon" xmlns="http://www.w3.org/2000/svg" width="23.481" height="21.297"
     viewBox="0 0 23.481 21.297">
    <path id="Fill_6" data-name="Fill 6"
          d="M7.581,18.974a.509.509,0,0,1-.5-.4.5.5,0,0,1,.4-.592,7.146,7.146,0,0,0,4.248-2.557,7.094,7.094,0,0,0-3.482-2.84c-1.983-.672-2.409-.928-2.409-2.123A.5.5,0,0,1,6.2,9.978a4.64,4.64,0,0,1,1.195-.1c.7,0,1.562-.009,1.846-.38.24-.315.139-.541-.361-1.3-.123-.185-.252-.381-.376-.591a6.518,6.518,0,0,1-1.122-3.2l-.016-.165a3.226,3.226,0,0,0-3.239-3.24A3.132,3.132,0,0,0,1.007,3.545a.511.511,0,0,1-.615.373.5.5,0,0,1-.379-.6A4.162,4.162,0,0,1,4.094,0c.022,0,.045,0,.068,0a4.229,4.229,0,0,1,4.22,4.142l.017.169a5.572,5.572,0,0,0,.989,2.8c.114.194.234.375.348.546.477.72,1.018,1.536.323,2.447-.587.771-1.734.777-2.656.783-.162,0-.326,0-.474.008.135.21.526.362,1.648.742A8.057,8.057,0,0,1,12.8,15.249a.5.5,0,0,1-.065.557l-.078.09a8.29,8.29,0,0,1-4.975,3.068.521.521,0,0,1-.1.011"
          transform="translate(10.623)" fill="inherit" stroke="none"/>
    <path id="Fill_3" data-name="Fill 3"
          d="M9.263,8.547A46.689,46.689,0,0,1,.4,7.766.5.5,0,0,1,0,7.251a5.975,5.975,0,0,1,4.69-5.926A6.012,6.012,0,0,0,6.9.144a.516.516,0,0,1,.721.007.5.5,0,0,1,0,.708A6.9,6.9,0,0,1,5,2.284c-1.793.557-3.644,1.542-3.945,4.582a48.745,48.745,0,0,0,8.211.676,48.745,48.745,0,0,0,8.211-.676c-.3-3.04-2.153-4.025-3.945-4.582A6.909,6.909,0,0,1,10.907.859a.5.5,0,0,1,0-.711.517.517,0,0,1,.721,0,6.023,6.023,0,0,0,2.211,1.182,5.974,5.974,0,0,1,4.69,5.925.5.5,0,0,1-.4.515,46.7,46.7,0,0,1-8.86.781"
          transform="translate(0 12.751)" fill="inherit" stroke="none"/>
    <path id="Fill_1" data-name="Fill 1"
          d="M5.222,11.769a3.885,3.885,0,0,1-2.933-1.55A8,8,0,0,1,.942,7.988l-.005,0-.032-.02a.852.852,0,0,1-.342-.3A2.588,2.588,0,0,1,.134,5.338,1.251,1.251,0,0,1,.6,4.811,7.936,7.936,0,0,1,.838,2.9,4.345,4.345,0,0,1,5.222,0,4.342,4.342,0,0,1,9.6,2.9a7.77,7.77,0,0,1,.237,1.913,1.252,1.252,0,0,1,.467.526,2.585,2.585,0,0,1-.429,2.333.845.845,0,0,1-.34.294L9.5,7.988A8.041,8.041,0,0,1,8.154,10.22,3.884,3.884,0,0,1,5.222,11.769ZM5.222,1a3.308,3.308,0,0,0-3.4,2.156,7.127,7.127,0,0,0-.2,1.945.505.505,0,0,1-.418.52.272.272,0,0,0-.155.147c-.039.091-.128.454.347,1.315l.022.013.02.012c.194.118.362.22.425.436.2.681,1.541,3.217,3.353,3.217S8.376,8.229,8.575,7.548c.063-.216.23-.318.424-.436l.02-.012.022-.013c.485-.878.385-1.236.343-1.325a.282.282,0,0,0-.15-.137.505.505,0,0,1-.417-.52,7.134,7.134,0,0,0-.2-1.948A3.315,3.315,0,0,0,5.222,1Z"
          transform="translate(4.041 2.6)" fill="inherit" stroke="none"/>
</svg>
