<svg id="settings_icon" data-name="settings icon" xmlns="http://www.w3.org/2000/svg" width="21" height="21"
     viewBox="0 0 21 21">
    <path id="Fill_1" data-name="Fill 1"
          d="M11.108,21H9.893a1.371,1.371,0,0,1-1.348-1.124l-.175-.969a8.593,8.593,0,0,1-2.3-.958l-.813.563a1.352,1.352,0,0,1-.773.236,1.382,1.382,0,0,1-.975-.394L2.646,17.5a1.371,1.371,0,0,1-.158-1.749l.563-.812a8.563,8.563,0,0,1-.957-2.3l-.969-.175A1.37,1.37,0,0,1,0,11.108V9.893A1.368,1.368,0,0,1,1.125,8.545l.969-.176a8.561,8.561,0,0,1,.957-2.3l-.563-.813a1.371,1.371,0,0,1,.158-1.748l.859-.859a1.382,1.382,0,0,1,.975-.394,1.352,1.352,0,0,1,.773.236l.813.563a8.593,8.593,0,0,1,2.3-.958l.175-.968A1.372,1.372,0,0,1,9.893,0h1.215a1.369,1.369,0,0,1,1.347,1.124l.176.969a8.593,8.593,0,0,1,2.3.958l.812-.563a1.352,1.352,0,0,1,.773-.236,1.385,1.385,0,0,1,.976.394l.86.859a1.369,1.369,0,0,1,.157,1.748l-.563.813a8.593,8.593,0,0,1,.958,2.3l.969.175A1.37,1.37,0,0,1,21,9.893v1.215a1.369,1.369,0,0,1-1.124,1.347l-.969.175a8.6,8.6,0,0,1-.958,2.3l.563.812a1.37,1.37,0,0,1-.157,1.749l-.86.859a1.37,1.37,0,0,1-1.748.158l-.813-.563a8.593,8.593,0,0,1-2.3.958l-.176.968A1.369,1.369,0,0,1,11.108,21ZM6.052,16.946a.451.451,0,0,1,.247.074,7.7,7.7,0,0,0,2.561,1.064.453.453,0,0,1,.353.365l.229,1.264a.459.459,0,0,0,.45.375h1.215a.457.457,0,0,0,.449-.375l.229-1.264a.455.455,0,0,1,.353-.365A7.679,7.679,0,0,0,14.7,17.02a.454.454,0,0,1,.508.008l1.059.733a.45.45,0,0,0,.258.079.461.461,0,0,0,.325-.131l.86-.86a.456.456,0,0,0,.051-.582l-.733-1.059a.456.456,0,0,1-.008-.508,7.686,7.686,0,0,0,1.064-2.56.455.455,0,0,1,.365-.354l1.264-.23a.455.455,0,0,0,.375-.448V9.893a.457.457,0,0,0-.375-.45l-1.264-.229a.457.457,0,0,1-.365-.354A7.7,7.7,0,0,0,17.02,6.3a.455.455,0,0,1,.008-.508l.733-1.059a.455.455,0,0,0-.051-.582l-.86-.859a.463.463,0,0,0-.325-.131.447.447,0,0,0-.257.079l-1.059.734a.455.455,0,0,1-.508.008,7.674,7.674,0,0,0-2.561-1.065.455.455,0,0,1-.353-.365l-.229-1.264a.457.457,0,0,0-.449-.375H9.893a.459.459,0,0,0-.45.375L9.213,2.552a.453.453,0,0,1-.353.365A7.678,7.678,0,0,0,6.3,3.981a.455.455,0,0,1-.508-.008L4.733,3.239a.447.447,0,0,0-.257-.079.463.463,0,0,0-.325.131l-.859.859a.455.455,0,0,0-.052.582l.734,1.059a.455.455,0,0,1,.008.508A7.716,7.716,0,0,0,2.916,8.861a.457.457,0,0,1-.364.354l-1.265.229a.457.457,0,0,0-.375.45v1.215a.456.456,0,0,0,.375.449l1.265.229a.455.455,0,0,1,.364.354A7.707,7.707,0,0,0,3.981,14.7a.456.456,0,0,1-.008.508l-.734,1.059a.456.456,0,0,0,.052.582l.859.86a.463.463,0,0,0,.325.131.453.453,0,0,0,.258-.078l1.058-.733A.457.457,0,0,1,6.052,16.946Z"
          transform="translate(0 0)"
          fill="inherit"  stroke="none"/>
    <path id="Fill_4" data-name="Fill 4"
          d="M4.109,8.217A4.109,4.109,0,1,1,8.217,4.109,4.113,4.113,0,0,1,4.109,8.217Zm0-7.3a3.2,3.2,0,1,0,3.2,3.2A3.2,3.2,0,0,0,4.109.913Z"
          transform="translate(6.391 6.391)"
          fill="inherit"  stroke="none"/>
</svg>
