<svg xmlns="http://www.w3.org/2000/svg" width="17.059" height="21.25" viewBox="0 0 17.059 21.25">
    <g id="shopping-bag" transform="translate(0.125 0.125)">
        <path id="Path_470" data-name="Path 470"
              d="M65.6,18.153,64.4,4.612a.579.579,0,0,0-.575-.528H61.353a4.149,4.149,0,0,0-8.3,0H50.582a.576.576,0,0,0-.575.528l-1.2,13.54c0,.017,0,.034,0,.052A2.993,2.993,0,0,0,51.952,21h10.5a2.993,2.993,0,0,0,3.152-2.8A.209.209,0,0,0,65.6,18.153ZM57.2,1.16a2.992,2.992,0,0,1,2.989,2.925H54.215A2.992,2.992,0,0,1,57.2,1.16ZM62.456,19.84h-10.5a1.85,1.85,0,0,1-1.993-1.61L51.11,5.248h1.941V7.009a.58.58,0,1,0,1.16,0V5.248h5.982V7.009a.58.58,0,1,0,1.16,0V5.248h1.941L64.449,18.23A1.853,1.853,0,0,1,62.456,19.84Z"
              transform="translate(-48.8)"
              fill="inherit"
              stroke="none" stroke-width="0.25"/>
    </g>
</svg>
