<svg xmlns="http://www.w3.org/2000/svg" width="21.397" height="20.25" viewBox="0 0 21.397 20.25">
    <g id="shopping-cart" transform="translate(0.125 0.125)">
        <path id="Path_471" data-name="Path 471"
              d="M127.571,314.676a2.016,2.016,0,1,0-2.016,2.016A2.016,2.016,0,0,0,127.571,314.676Zm-3.317,0a1.3,1.3,0,1,1,1.3,1.3A1.3,1.3,0,0,1,124.254,314.676Zm0,0"
              transform="translate(-117.23 -296.692)" fill="inherit"  stroke="none" stroke-width="0.25"/>
        <path id="Path_472" data-name="Path 472"
              d="M271.715,316.692a2.016,2.016,0,1,0-2.016-2.016A2.016,2.016,0,0,0,271.715,316.692Zm0-3.317a1.3,1.3,0,1,1-1.3,1.3A1.3,1.3,0,0,1,271.715,313.375Zm0,0"
              transform="translate(-255.925 -296.692)" fill="inherit"  stroke="none" stroke-width="0.25"/>
        <path id="Path_473" data-name="Path 473"
              d="M.358.715H2.538A1.45,1.45,0,0,1,3.977,1.944L5.7,12.848a2.162,2.162,0,0,0,2.145,1.832H18.519a.358.358,0,1,0,0-.715H7.848A1.45,1.45,0,0,1,6.41,12.736l-.293-1.854H17.045A2.173,2.173,0,0,0,19.1,9.422L21.124,3.57a.357.357,0,0,0-.338-.475H4.883l-.2-1.263A2.162,2.162,0,0,0,2.538,0H.358a.358.358,0,0,0,0,.715Zm19.927,3.1L18.421,9.188a1.458,1.458,0,0,1-1.377.98H6L5,3.81Zm0,0"
              transform="translate(0 0)" fill="inherit"  stroke="none" stroke-width="0.25"/>
    </g>
</svg>
