<svg fill="inherit" xmlns="http://www.w3.org/2000/svg" width="19.5" height="17" viewBox="0 0 19.5 17">

    <g transform="translate(0 -30)">
        <g transform="translate(0 30)">
            <g transform="translate(0)">
                <path class="a"
                      d="M19.327,33.458h0L17.65,30.615A1.256,1.256,0,0,0,16.574,30H3.255a1.251,1.251,0,0,0-1.025.534L.224,33.41A1.242,1.242,0,0,0,0,34.125V34.9a1.978,1.978,0,0,0,1.375,1.872v9.807a.406.406,0,0,0,.4.416H17.7a.425.425,0,0,0,.427-.416v-9.8A1.973,1.973,0,0,0,19.5,34.9v-.813A1.283,1.283,0,0,0,19.327,33.458ZM11.667,46.167H7.833V40.5h3.833Zm5.625,0H12.5V40.087a.433.433,0,0,0-.432-.421H7.408A.413.413,0,0,0,7,40.084v6.082H2.208V36.857a1.988,1.988,0,0,0,1.114-.526,2.5,2.5,0,0,0,4.334.308,2.5,2.5,0,0,0,4.181-.026,2.513,2.513,0,0,0,4.359-.275,1.982,1.982,0,0,0,1.1.516ZM18.667,34.9a1.133,1.133,0,0,1-2.24.24l-.027-.281a.417.417,0,0,0-.831.041,1.969,1.969,0,0,0,.034.364v0a1.666,1.666,0,0,1-3.331-.02.417.417,0,0,0-.417-.417h-.034a.417.417,0,0,0-.417.417,1.666,1.666,0,0,1-3.331.017q0-.008,0-.017a.417.417,0,1,0-.833,0,1.666,1.666,0,0,1-3.331.013l.007-.111a1.98,1.98,0,0,0,.016-.249.417.417,0,0,0-.832-.028l-.013.192A1.132,1.132,0,0,1,.833,34.9v-.779a.414.414,0,0,1,.074-.238l2.007-2.876a.415.415,0,0,1,.341-.178H16.574a.418.418,0,0,1,.359.2l1.677,2.842a.415.415,0,0,1,.057.212Z"
                      transform="translate(0 -30)"/>
            </g>
        </g>
    </g>
</svg>