<svg xmlns="http://www.w3.org/2000/svg" width="18.992" height="19" viewBox="0 0 18.992 19">
    <path id="watch"
          d="M9.5,0A9.5,9.5,0,1,1,2.79,2.782,9.493,9.493,0,0,1,9.5,0Zm4.842,8.982a.519.519,0,0,1,0,1.037H9.5a.519.519,0,0,1-.445-.263l-.007-.007h0l-.007-.015h0V9.726h0l-.007-.015h0L9.026,9.7h0V9.69h0l-.007-.015h0l-.007-.007h0V9.653h0L9,9.638H9V9.631H9L9,9.616H9V9.6H9V9.586l-.007-.007h0V9.564h0V9.55h0V9.537h0V9.529h0V9.515h0V9.5h0V3.315A.508.508,0,0,1,9.5,2.8a.514.514,0,0,1,.518.511V8.982Zm1.146-5.469A8.462,8.462,0,1,0,17.971,9.5a8.438,8.438,0,0,0-2.483-5.988Z"
          transform="translate(-0.008)" fill="inherit" stroke="none"/>
</svg>
