<svg xmlns="http://www.w3.org/2000/svg" width="17.942" height="16" viewBox="0 0 17.942 16"><defs><style>.a{fill:#4e5983;}</style></defs><g transform="translate(0 0)"><path class="a" d="M.62,35.881H2.081v5.846a.628.628,0,0,0,.626.626h4.28a.628.628,0,0,0,.626-.626v-4.28h2.61v4.28a.628.628,0,0,0,.626.626h4.071a.628.628,0,0,0,.626-.626V35.881h1.775a.624.624,0,0,0,.438-1.065L9.6,26.539a.624.624,0,0,0-.877-.01L.192,34.806a.627.627,0,0,0-.146.689A.611.611,0,0,0,.62,35.881Zm8.518-8.017,6.681,6.764h-.9a.628.628,0,0,0-.626.626V41.1H11.476v-4.28a.628.628,0,0,0-.626-.626H6.987a.628.628,0,0,0-.626.626V41.1H3.334V35.255a.628.628,0,0,0-.626-.626H2.165Z" transform="translate(0 -26.353)"/></g></svg>